<svg xmlns="http://www.w3.org/2000/svg" viewBox="0 0 512 512" width="100%" height="100%">
  <defs>
    <!-- Background Gradient -->
    <radialGradient id="bgGlow" cx="40%" cy="40%" r="75%">
      <stop offset="0%" stop-color="#0a192f" />
      <stop offset="50%" stop-color="#050d18" />
      <stop offset="100%" stop-color="#020407" />
    </radialGradient>

    <!-- 3D Gold Metallic Gradients -->
    <linearGradient id="goldBevel" x1="0%" y1="0%" x2="100%" y2="100%">
      <stop offset="0%" stop-color="#fffbeb" />
      <stop offset="15%" stop-color="#fde68a" />
      <stop offset="35%" stop-color="#f59e0b" />
      <stop offset="60%" stop-color="#d97706" />
      <stop offset="85%" stop-color="#92400e" />
      <stop offset="100%" stop-color="#451a03" />
    </linearGradient>

    <linearGradient id="goldLight" x1="0%" y1="0%" x2="0%" y2="100%">
      <stop offset="0%" stop-color="#fef08a" />
      <stop offset="50%" stop-color="#f59e0b" />
      <stop offset="100%" stop-color="#78350f" />
    </linearGradient>

    <!-- Gunmetal & Carbon Black Gradients -->
    <linearGradient id="gunmetal" x1="0%" y1="0%" x2="100%" y2="100%">
      <stop offset="0%" stop-color="#334155" />
      <stop offset="30%" stop-color="#1e293b" />
      <stop offset="70%" stop-color="#0f172a" />
      <stop offset="100%" stop-color="#020617" />
    </linearGradient>

    <!-- Electric Cyan/Blue Tubing Gradient -->
    <linearGradient id="tubingGrad" x1="0%" y1="0%" x2="100%" y2="100%">
      <stop offset="0%" stop-color="#67e8f9" />
      <stop offset="25%" stop-color="#38bdf8" />
      <stop offset="60%" stop-color="#0284c7" />
      <stop offset="85%" stop-color="#0369a1" />
      <stop offset="100%" stop-color="#0c4a6e" />
    </linearGradient>

    <!-- Neon Glow Filters -->
    <filter id="neonBlueGlow" x="-30%" y="-30%" width="160%" height="160%">
      <feGaussianBlur stdDeviation="8" result="blur1" />
      <feGaussianBlur stdDeviation="16" result="blur2" />
      <feMerge>
        <feMergeNode in="blur2" />
        <feMergeNode in="blur1" />
        <feMergeNode in="SourceGraphic" />
      </feMerge>
    </filter>

    <filter id="oilDropGlow" x="-30%" y="-30%" width="160%" height="160%">
      <feGaussianBlur stdDeviation="5" result="blur" />
      <feColorMatrix type="matrix" values="
        1 0 0 0 1
        0 0.8 0 0 0.6
        0 0 0 0 0.1
        0 0 0 1 0" />
      <feMerge>
        <feMergeNode />
        <feMergeNode in="SourceGraphic" />
      </feMerge>
    </filter>

    <filter id="heavyShadow" x="-20%" y="-20%" width="140%" height="140%">
      <feDropShadow dx="8" dy="16" stdDeviation="12" flood-color="#000000" flood-opacity="0.9" />
    </filter>
  </defs>

  <!-- Base App Background with 110px squircle radius -->
  <rect width="512" height="512" rx="108" fill="url(#bgGlow)" />

  <!-- Outer Heavy Gold 3D Beveled Frame -->
  <rect x="14" y="14" width="484" height="484" rx="96" fill="none" stroke="url(#goldBevel)" stroke-width="12" />
  <rect x="22" y="22" width="468" height="468" rx="88" fill="none" stroke="#451a03" stroke-width="3" opacity="0.8" />

  <!-- Inner High-Intensity Neon Cyan Glow Border -->
  <rect x="26" y="26" width="460" height="460" rx="84" fill="none" stroke="#38bdf8" stroke-width="6" opacity="0.95" filter="url(#neonBlueGlow)" />
  <rect x="26" y="26" width="460" height="460" rx="84" fill="none" stroke="#ffffff" stroke-width="2" opacity="0.9" />

  <!-- Electric Splash Particles in Background Corners -->
  <g opacity="0.65" filter="url(#neonBlueGlow)">
    <circle cx="58" cy="450" r="14" fill="#38bdf8" />
    <circle cx="45" cy="465" r="8" fill="#e0f2fe" />
    <circle cx="85" cy="475" r="6" fill="#0284c7" />
    <circle cx="460" cy="380" r="10" fill="#38bdf8" />
    <circle cx="480" cy="410" r="6" fill="#7dd3fc" />
    <path d="M 30,420 Q 50,460 90,470" fill="none" stroke="#38bdf8" stroke-width="3" />
  </g>

  <!-- ================= COILED TUBING REEL (LEFT) ================= -->
  <g transform="translate(42, 64)" filter="url(#heavyShadow)">
    
    <!-- Heavy Deep Tubing Drum Shadow -->
    <circle cx="140" cy="190" r="142" fill="#010610" />

    <!-- Tightly Wound Electric Blue Tubing Coils (Multiple Layers) -->
    <g filter="url(#neonBlueGlow)">
      <!-- Outer Coil Layers with High-Gloss Highlights -->
      <circle cx="140" cy="190" r="134" fill="none" stroke="url(#tubingGrad)" stroke-width="14" />
      <circle cx="140" cy="190" r="134" fill="none" stroke="#e0f2fe" stroke-width="3" opacity="0.75" stroke-dasharray="18 6" />

      <circle cx="140" cy="190" r="120" fill="none" stroke="url(#tubingGrad)" stroke-width="14" />
      <circle cx="140" cy="190" r="120" fill="none" stroke="#bae6fd" stroke-width="3" opacity="0.85" stroke-dasharray="14 4" />

      <circle cx="140" cy="190" r="106" fill="none" stroke="url(#tubingGrad)" stroke-width="14" />
      <circle cx="140" cy="190" r="106" fill="none" stroke="#38bdf8" stroke-width="3" opacity="0.6" stroke-dasharray="10 8" />

      <circle cx="140" cy="190" r="92" fill="none" stroke="url(#tubingGrad)" stroke-width="14" />
      <circle cx="140" cy="190" r="92" fill="none" stroke="#e0f2fe" stroke-width="3" opacity="0.9" stroke-dasharray="16 5" />

      <circle cx="140" cy="190" r="78" fill="none" stroke="url(#tubingGrad)" stroke-width="14" />
      <circle cx="140" cy="190" r="64" fill="none" stroke="url(#tubingGrad)" stroke-width="14" />
    </g>

    <!-- Heavy 3D Golden Flange / Spoke Wheel Framework -->
    <!-- Outer Golden Wheel Rim -->
    <circle cx="140" cy="190" r="144" fill="none" stroke="url(#goldBevel)" stroke-width="14" />
    <circle cx="140" cy="190" r="150" fill="none" stroke="#fef08a" stroke-width="3" opacity="0.95" />
    <circle cx="140" cy="190" r="138" fill="none" stroke="#451a03" stroke-width="2" />

    <!-- 6 Golden Heavy Spokes -->
    <g stroke="url(#goldBevel)" stroke-width="12" stroke-linecap="round">
      <line x1="140" y1="190" x2="140" y2="48" />
      <line x1="140" y1="190" x2="263" y2="119" />
      <line x1="140" y1="190" x2="263" y2="261" />
      <line x1="140" y1="190" x2="140" y2="332" />
      <line x1="140" y1="190" x2="17" y2="261" />
      <line x1="140" y1="190" x2="17" y2="119" />
    </g>

    <!-- Highlight Over Spokes -->
    <g stroke="#fef08a" stroke-width="3" stroke-linecap="round" opacity="0.85">
      <line x1="138" y1="188" x2="138" y2="52" />
      <line x1="138" y1="188" x2="260" y2="121" />
      <line x1="138" y1="188" x2="260" y2="259" />
      <line x1="138" y1="188" x2="138" y2="328" />
      <line x1="138" y1="188" x2="20" y2="259" />
      <line x1="138" y1="188" x2="20" y2="121" />
    </g>

    <!-- Center Hub: Metallic Black Cap with Golden Ring & Glowing Oil Drop -->
    <circle cx="140" cy="190" r="54" fill="#090d16" stroke="url(#goldBevel)" stroke-width="8" />
    <circle cx="140" cy="190" r="48" fill="#04070e" />
    <circle cx="140" cy="190" r="44" fill="none" stroke="#f59e0b" stroke-width="3" opacity="0.7" />

    <!-- Golden & Amber Glowing Oil Drop Emblem -->
    <g filter="url(#oilDropGlow)">
      <!-- Outer Drop Contour -->
      <path d="M 140,158 C 140,158 118,184 118,198 C 118,210 128,220 140,220 C 152,220 162,210 162,198 C 162,184 140,158 140,158 Z" 
            fill="none" stroke="url(#goldBevel)" stroke-width="8" stroke-linejoin="round" />
      <!-- Inner Glowing Amber Drop -->
      <path d="M 140,165 C 140,165 124,187 124,198 C 124,207 131,214 140,214 C 149,214 156,207 156,198 C 156,187 140,165 140,165 Z" 
            fill="#f59e0b" />
      <!-- Bright Center Highlight Core -->
      <path d="M 140,172 C 140,172 130,189 130,197 C 130,203 134,208 140,208 C 146,208 150,203 150,197 C 150,189 140,172 140,172 Z" 
            fill="#fffbeb" />
    </g>
  </g>

  <!-- ================= INJECTOR NOZZLE / HIGH PRESSURE TOOL (DIAGONAL RIGHT) ================= -->
  <!-- Positioned across the top-right to bottom-right exactly matching the uploaded image -->
  <g transform="translate(245, 10) rotate(34)" filter="url(#heavyShadow)">
    
    <!-- Top Hose Attachment with High-Gloss Blue Ribbing -->
    <rect x="32" y="-45" width="36" height="75" rx="10" fill="url(#tubingGrad)" stroke="#38bdf8" stroke-width="3" />
    <line x1="38" y1="-40" x2="38" y2="25" stroke="#ffffff" stroke-width="3" opacity="0.8" />
    <line x1="60" y1="-40" x2="60" y2="25" stroke="#0369a1" stroke-width="3" />

    <!-- Top Heavy Gold Connector Ring -->
    <rect x="22" y="22" width="56" height="34" rx="10" fill="url(#goldBevel)" stroke="#fef08a" stroke-width="2" />
    <!-- Flutes in Gold Ring -->
    <line x1="32" y1="26" x2="32" y2="52" stroke="#78350f" stroke-width="3" />
    <line x1="42" y1="26" x2="42" y2="52" stroke="#78350f" stroke-width="3" />
    <line x1="52" y1="26" x2="52" y2="52" stroke="#78350f" stroke-width="3" />
    <line x1="62" y1="26" x2="62" y2="52" stroke="#78350f" stroke-width="3" />
    <line x1="70" y1="26" x2="70" y2="52" stroke="#78350f" stroke-width="3" />

    <!-- Main Gunmetal Cylinder Body with Neon Cyan Slits & Digital Emblem -->
    <rect x="18" y="56" width="64" height="96" rx="14" fill="url(#gunmetal)" stroke="url(#goldBevel)" stroke-width="4" />
    
    <!-- Cyan Glowing Status Indicator Bars (Left side) -->
    <g filter="url(#neonBlueGlow)">
      <rect x="24" y="68" width="6" height="14" rx="3" fill="#38bdf8" />
      <rect x="24" y="86" width="6" height="14" rx="3" fill="#38bdf8" />
      <rect x="24" y="104" width="6" height="14" rx="3" fill="#38bdf8" />
      <rect x="24" y="122" width="6" height="14" rx="3" fill="#38bdf8" />
    </g>

    <!-- Center Digital Tech Emblem (Interlocking Hex/Loop in Cyan) -->
    <rect x="42" y="74" width="32" height="42" rx="8" fill="#020617" stroke="#38bdf8" stroke-width="2" />
    <!-- Glowing Tech Symbol -->
    <g transform="translate(58, 95)" filter="url(#neonBlueGlow)">
      <circle cx="0" cy="-6" r="6" fill="none" stroke="#38bdf8" stroke-width="2.5" />
      <circle cx="0" cy="6" r="6" fill="none" stroke="#38bdf8" stroke-width="2.5" />
      <line x1="-6" y1="-6" x2="6" y2="6" stroke="#38bdf8" stroke-width="2.5" />
      <circle cx="0" cy="0" r="2" fill="#ffffff" />
    </g>

    <!-- Middle Gold Collar Coupling -->
    <rect x="12" y="152" width="76" height="32" rx="8" fill="url(#goldBevel)" stroke="#fef08a" stroke-width="2.5" />
    <rect x="20" y="162" width="60" height="12" rx="4" fill="#1e293b" />
    <circle cx="28" cy="168" r="3" fill="#f59e0b" />
    <circle cx="50" cy="168" r="3" fill="#f59e0b" />
    <circle cx="72" cy="168" r="3" fill="#f59e0b" />

    <!-- Lower High-Pressure Nozzle Section (Gold & Stepped Cones) -->
    <polygon points="16,184 84,184 74,272 26,272" fill="url(#goldBevel)" stroke="#fef08a" stroke-width="2" />
    
    <!-- Machined Ribs on Nozzle Cone -->
    <rect x="20" y="200" width="60" height="10" rx="3" fill="#451a03" />
    <rect x="23" y="222" width="54" height="10" rx="3" fill="#451a03" />
    <rect x="26" y="244" width="48" height="10" rx="3" fill="#451a03" />

    <!-- Heavy Hexagon/Spline Jet Head Base -->
    <rect x="26" y="272" width="48" height="24" rx="6" fill="url(#goldBevel)" stroke="#fde68a" stroke-width="2" />
    
    <!-- High-Velocity Plasma / Water Jet Orifice with Intense Cyan Core -->
    <g transform="translate(50, 296)" filter="url(#neonBlueGlow)">
      <ellipse cx="0" cy="0" rx="20" ry="9" fill="#0284c7" />
      <ellipse cx="0" cy="0" rx="14" ry="6" fill="#38bdf8" />
      <ellipse cx="0" cy="0" rx="8" ry="3" fill="#ffffff" />
      <!-- Jet Blast Cone -->
      <polygon points="-16,0 16,0 26,60 -26,60" fill="url(#tubingGrad)" opacity="0.9" />
      <ellipse cx="0" cy="30" rx="14" ry="24" fill="#ffffff" opacity="0.85" />
    </g>
  </g>
</svg>
